<?xml version="1.0" encoding="UTF-8" standalone="no"?>
<!DOCTYPE svg PUBLIC "-//W3C//DTD SVG 1.1//EN" "http://www.w3.org/Graphics/SVG/1.1/DTD/svg11.dtd">
<svg xmlns="http://www.w3.org/2000/svg" xmlns:xlink="http://www.w3.org/1999/xlink" version="1.1" width="500pt" height="500pt" viewBox="0 0 500 500">
<g enable-background="new">
<clipPath id="cp0">
<path transform="matrix(1,0,0,-1,0,500)" d="M 0 0 L 500 0 L 500 500 L 0 500 Z "/>
</clipPath>
<g clip-path="url(#cp0)">
<path transform="matrix(1,0,0,-1,0,500)" d="M 0 500 L 500 500 L 500 0 L 0 0 Z " fill="#ffffff"/>
<g id="Layer-1" data-name="P">
<path transform="matrix(1,0,0,-1,0,500)" d="M 423.2412 423.2412 C 518.9196 327.5627 518.9196 172.4373 423.2412 76.75884 C 327.5627 -18.91962 172.4373 -18.91962 76.75884 76.75884 C -18.91962 172.4373 -18.91962 327.5627 76.75884 423.2412 C 172.4373 518.9196 327.5627 518.9196 423.2412 423.2412 Z M 423.2412 423.2412 "/>
</g>
<g id="Layer-1" data-name="P">
<symbol id="font_1_1">
<path d="M 0 .43100003 L 0 .5 L .120000008 .5 L .120000008 .56 C .120000008 .62533339 .131 .6716667 .15300001 .69900009 C .17500001 .7263334 .21066666 .74 .26 .74 C .29 .74 .32000003 .73499998 .35000003 .725 L .35000003 .65300008 C .3246667 .665 .2996667 .671 .27500005 .671 C .2436667 .671 .223 .66300007 .21300002 .647 C .20366669 .63166669 .19900002 .596 .19900002 .54 L .19900002 .5 L .35000003 .5 L .35000003 .43100003 L .19900002 .43100003 L .19900002 0 L .120000008 0 L .120000008 .43100003 L 0 .43100003 Z "/>
</symbol>
<symbol id="font_1_2">
<path d="M .38 .52000007 L .15 .27 L .38 0 L .285 0 L .079 .25300003 L .079 0 L 0 0 L 0 .73 L .079 .73 L .079 .286 L .286 .52000007 L .38 .52000007 Z "/>
</symbol>
<use xlink:href="#font_1_1" transform="matrix(325,0,0,-325,111.875,348.0026)" fill="#ffffff"/>
<use xlink:href="#font_1_2" transform="matrix(325,0,0,-325,276,348.0026)" fill="#ffffff"/>
</g>
</g>
</g>
</svg>
